<?xml version="1.0" standalone="no"?><!DOCTYPE svg PUBLIC "-//W3C//DTD SVG 1.1//EN" "http://www.w3.org/Graphics/SVG/1.1/DTD/svg11.dtd"><svg t="1626360344408" class="icon" viewBox="0 0 1024 1024" version="1.1" xmlns="http://www.w3.org/2000/svg" p-id="1227" xmlns:xlink="http://www.w3.org/1999/xlink" width="200" height="200"><defs><style type="text/css"></style></defs><path d="M397.994667 64h-261.973334c-39.808 0-72.021333 32.213333-72.021333 72.021333v261.973334c0 39.808 32.213333 72.021333 72.021333 72.021333h261.973334c39.808 0 72.021333-32.213333 72.021333-72.021333v-261.973334c0-39.808-32.213333-72.021333-72.021333-72.021333z m490.026666 0h-262.016c-39.808 0-72.021333 32.213333-72.021333 72.021333v261.973334c0 39.808 32.213333 72.021333 72.021333 72.021333h261.973334c39.808 0 72.021333-32.213333 72.021333-72.021333v-261.973334c0-39.808-32.213333-72.021333-72.021333-72.021333zM397.994667 553.984h-261.973334c-39.808 0-72.021333 32.213333-72.021333 72.021333v261.973334c0 39.808 32.213333 72.021333 72.021333 72.021333h261.973334c39.808 0 72.021333-32.213333 72.021333-72.021333v-261.973334c0-39.808-32.213333-72.021333-72.021333-72.021333z m490.026666 0h-262.016c-39.808 0-72.021333 32.213333-72.021333 72.021333v261.973334c0 39.808 32.213333 72.021333 72.021333 72.021333h261.973334c39.808 0 72.021333-32.213333 72.021333-72.021333v-261.973334c0-39.808-32.213333-72.021333-72.021333-72.021333z" fill="#13227a" opacity=".65" p-id="1228"></path></svg>